/* XPM */
static char * DI2_xpm[] = {
"32 32 9 1",
" 	c #222222",
".	c #483B3A",
"+	c #775C55",
"@	c #314152",
"#	c #3D734F",
"$	c #FDF7ED",
"%	c #8F4029",
"&	c #D3BFA9",
"*	c #62232F",
"   .    ... .      .    ... .   ",
" ..............+ ..............+",
"...............+...............+",
"...............+...............+",
" ..............+ ...+..........+",
"...............+..++  +........+",
" ............... .  ..  +.......",
" ..............+  ...... ......+",
" ............... ........ ++....",
"...........          ... +  ++++",
"........... @####### ..+ ...   +",
" .......... @#        + ........",
" .......... @# $$$$$$  .........",
" .........     $  $$   ........+",
" ......... %%% $  $$   ........+",
"+++..+.+++     $&&$$& .++++.++++",
"   .    ... @#   $  $   ... .   ",
" .......... @###      .........+",
"........... @@@@@@@@  .........+",
"........... ******** ..........+",
" .......... %%%%%%%% ..........+",
".++........ %%%%%%%% ..........+",
"   ++.....+          ...........",
"     ++..+ ....+ ..............+",
"       +  ...... ...............",
"  ...   ........ ...............",
"  ....  +......+ ..............+",
"  +..+ . ....... ...............",
"   ++  ......... ...............",
"      .........+ ..+ ..........+",
"      .........+ .+ ...........+",
"+++  +.++++.+++++++  +.++++.++++"};
