/* XPM */
static char * C1_xpm[] = {
"32 32 8 1",
" 	c #222222",
".	c #483B3A",
"+	c #775C55",
"@	c #FACB3E",
"#	c #62232F",
"$	c #EE8E2E",
"%	c #8F4029",
"&	c #C56025",
"   .    ... .      .    ... .   ",
" ..............+ ..............+",
"...............+...............+",
"...............+...............+",
" ..............+ ...+..........+",
"...............+..++  +........+",
" ............... .  ..  +.......",
" ..............+  ...... ......+",
" ............... ........ ++....",
"..........  ...+....  .. +  ++++",
"........  @#        #@   ...   +",
" ....... $$%$$$$$$$$%$$ ........",
" ....... &@#&&&&&&&&#@& ........",
" ....... &$%&&&&&&&&%$& .......+",
" ....... &@#&&&&&&&&#@& .......+",
"+++..+.+ &$%&&%##%&&%$& +++.++++",
"   .     @@#@@#@@#@@#@@ ... .   ",
" .......  $%  #$@#  %$  .......+",
"........ #  ##    ##  # .......+",
"........ %##%%####%%##% .......+",
" ....... #%%%%%%%%%%%%# .......+",
".++..... ############## .......+",
"   ++...                ........",
"     ++..+ ....+ ..............+",
"       +  ...... ...............",
"  ...   ........ ...............",
"  ....  +......+ ..............+",
"  +..+ . ....... ...............",
"   ++  ......... ...............",
"      .........+ ..+ ..........+",
"      .........+ .+ ...........+",
"+++  +.++++.+++++++  +.++++.++++"};
