/* XPM */
static char * B10_xpm[] = {
"32 32 2 1",
" 	c #50A7E8",
".	c #4280DD",
"              ............      ",
"              ............      ",
"                ............    ",
"                ............    ",
"                  ............  ",
"                  ............  ",
"..                ..............",
"..                ..............",
"....                ............",
"....                ............",
"........              ..........",
"........              ..........",
"............            ........",
"............            ........",
"..............            ......",
"..............            ......",
"................            ....",
"................            ....",
"..................              ",
"..................              ",
"      ..............            ",
"      ..............            ",
"          ............          ",
"          ............          ",
"            ..........          ",
"            ..........          ",
"            ............        ",
"            ............        ",
"              ............      ",
"              ............      ",
"              ............      ",
"              ............      "};
