/* XPM */
static char * B2_xpm[] = {
"32 32 2 1",
" 	c #4280DD",
".	c #50A7E8",
"    ..............              ",
"    ..............              ",
"      ..................        ",
"      ..................        ",
"      ......................    ",
"      ......................    ",
"        ......................  ",
"        ......................  ",
"        ......................  ",
"        ......................  ",
"          ......................",
"          ......................",
"..        ......................",
"..        ......................",
"..        ......................",
"..        ......................",
"....        ....................",
"....        ....................",
"....          ..................",
"....          ..................",
"......          ................",
"......          ................",
"........          ..............",
"........          ..............",
"........              ..........",
"........              ..........",
"..........                ......",
"..........                ......",
"............                  ..",
"............                  ..",
"  ..............                ",
"  ..............                "};
