/* XPM */
static char * C1_xpm[] = {
"32 32 8 1",
" 	c #7BCB69",
".	c #76C564",
"+	c #222222",
"@	c #FACB3E",
"#	c #62232F",
"$	c #EE8E2E",
"%	c #8F4029",
"&	c #C56025",
"  ..  ..  ..  ..  ..  ..  ..  ..",
"  ..  ..  ..  ..  ..  ..  ..  ..",
"..  ..  ..  ..  ..  ..  ..  ..  ",
"..  ..  ..  ..  ..  ..  ..  ..  ",
"  ..  ..  ..  ..  ..  ..  ..  ..",
"  ..  ..  ..  ..  ..  ..  ..  ..",
"..  ..  ..  ..  ..  ..  ..  ..  ",
"..  ..  ..  ..  ..  ..  ..  ..  ",
"  ..  ..  ..  ..  ..  ..  ..  ..",
"  ..  ..  ..  ..  ..  ..  ..  ..",
"..  ..  ..++..  ..  ++  ..  ..  ",
"..  ..  ++@#++++++++#@++..  ..  ",
"  ..  ..+$$%$$$$$$$$%$$+  ..  ..",
"  ..  ..+&@#&&&&&&&&#@&+  ..  ..",
"..  ..  +&$%&&&&&&&&%$&+..  ..  ",
"..  ..  +&@#&&&&&&&&#@&+..  ..  ",
"  ..  ..+&$%&&%##%&&%$&+  ..  ..",
"  ..  ..+@@#@@#@@#@@#@@+  ..  ..",
"..  ..  ++$%++#$@#++%$++..  ..  ",
"..  ..  +#++##++++##++#+..  ..  ",
"  ..  ..+%##%%####%%##%+  ..  ..",
"  ..  ..+#%%%%%%%%%%%%#+  ..  ..",
"..  ..  +##############+..  ..  ",
"..  ..  ++++++++++++++++..  ..  ",
"  ..  ..  ..  ..  ..  ..  ..  ..",
"  ..  ..  ..  ..  ..  ..  ..  ..",
"..  ..  ..  ..  ..  ..  ..  ..  ",
"..  ..  ..  ..  ..  ..  ..  ..  ",
"  ..  ..  ..  ..  ..  ..  ..  ..",
"  ..  ..  ..  ..  ..  ..  ..  ..",
"..  ..  ..  ..  ..  ..  ..  ..  ",
"..  ..  ..  ..  ..  ..  ..  ..  "};
