/* XPM */
static char * C3_xpm[] = {
"32 32 12 1",
" 	c #7BCB69",
".	c #76C564",
"+	c #222222",
"@	c #EE8E2E",
"#	c #62232F",
"$	c #FACB3E",
"%	c #8F4029",
"&	c #C56025",
"*	c #97DA3F",
"=	c #FDF7ED",
"-	c #FFAD3B",
";	c #72D6CE",
"  ..  ..  ..  ..  ..  ..  ..  ..",
"  ..  ..  ..  ..  ..  ..  ..  ..",
"..  ..  ..  ..  ..  ..  ..  ..  ",
"..  ..  ..  ..  ..  ..  ..  ..  ",
"  ..  ..  ..  ..  ..  ..  ..  ..",
"  ..  ..  ..  ..  ..  ..  ..  ..",
"..  ..  ..  ..  ..  ..  ..  ..  ",
"..  ..  ..  ..  ..  ..  ..  ..  ",
"  ..  ..  ++  ..  ..++..  ..  ..",
"  ..  ..++@#++++++++#@++  ..  ..",
"..  ..  +@$%@@@@@@@@%$@+..  ..  ",
"..  ..  +&@%&&%##%&&%@&+..  ..  ",
"  ..  ..+$$#$$#$$#$$#$$+  ..  ..",
"  ..  ..++@%++#@$#++%@++  ..  ..",
"..  ..  +&+++++##+++++&+..  ..  ",
"..  ..  +&++*=--$$==++&+..  ..  ",
"  ..  ..+&+=**$==-;=-+&+  ..  ..",
"  ..  ..+&=$$--##=;;$=&+  ..  ..",
"..  ..  +&&&&&&&&&&&&&&+..  ..  ",
"..  ..  +##############+..  ..  ",
"  ..  ..+%%%%%%%%%%%%%%+  ..  ..",
"  ..  ..+#%%%%%%%%%%%%#+  ..  ..",
"..  ..  +##############+..  ..  ",
"..  ..  ++++++++++++++++..  ..  ",
"  ..  ..  ..  ..  ..  ..  ..  ..",
"  ..  ..  ..  ..  ..  ..  ..  ..",
"..  ..  ..  ..  ..  ..  ..  ..  ",
"..  ..  ..  ..  ..  ..  ..  ..  ",
"  ..  ..  ..  ..  ..  ..  ..  ..",
"  ..  ..  ..  ..  ..  ..  ..  ..",
"..  ..  ..  ..  ..  ..  ..  ..  ",
"..  ..  ..  ..  ..  ..  ..  ..  "};
