/* XPM */
static char * C_charac_xpm[] = {
"32 32 19 1",
" 	c #7BCB69",
".	c #76C564",
"+	c #E5D972",
"@	c #B29547",
"#	c #AF7F60",
"$	c #000000",
"%	c #E4C094",
"&	c #44001B",
"*	c #63788E",
"=	c #141728",
"-	c #790C25",
";	c #222222",
">	c #37435C",
",	c #EE8E2E",
"'	c #C56025",
")	c #DCD0B8",
"!	c #62232F",
"~	c #8F4029",
"{	c #AA222B",
"  ..  ..  ..  ..  ..  ..  ..  ..",
"  ..  ..  .. +++++..  ..  ..  ..",
"..  ..  ..  +@+++++ ..  ..  ..  ",
"..  ..  ..  @+@+##+ ..  ..  ..  ",
"  ..  ..  ..@@+$#$+.  ..  ..  ..",
"  ..  ..  ..@#+%%%..  ..  ..  ..",
"..  ..  ..  &#%%%%  ..  ..  ..  ",
"..  ..  .. &&&#%%&  .$$$$$* ..  ",
"  ..  ..  ==&&##%-*.$$$$$$$*  ..",
"  ..  ..;&&=&-&##-&*$$$$$$$*  ..",
"..  ..  &&&-=&-&#&->$====>$*..  ",
"..  ..  &&--==&---&*&$$=$$$*..  ",
"  ..  .&&--====&&&=>&&&#$$$*  ..",
"  ..  .&&-,=======>&&&&#$$$*  ..",
"..  .. &--;;===>>>;;$$$=$$$>..  ",
"..  .$$&-';$==>>**;;$====>$*..  ",
"  ..  $##$$;==>**>;;$$$$$$$>  ..",
"  ..  .#$$;;-&----;;$$$$$$$>  ..",
"..  .. $$$)'&&-&--'''$$$$$> ..  ",
"..  .. $;)))=&-&->>!!!!;..  ..  ",
"  ..  $.;~)))&&&->**~~~;  ..  ..",
"  ..  ..;!>)))-&->>**~!;  ..  ..",
"..  ..  ;--=)))&&=>>--!;..  ..  ",
"..  ..  -{-==)))-==&-{;;..  ..  ",
"  ..  ..--&& &))) &=--..  ..  ..",
"  ..  ..>==. &.)))==> ..  ..  ..",
"..  .. -&=  .& &)))>..  ..  ..  ",
"..  ..-&&.  ..  .)))..  ..  ..  ",
"  ..  &&  ..  ..&&))) ..  ..  ..",
"  .. -&.  ..  ..&-.)))..  ..  ..",
"..  -&& ..  ..  &&- ))) ..  ..  ",
"..  ..  ..  ..  ..  ..  ..  ..  "};
