/* XPM */
static char * coinBD_xpm[] = {
"32 32 12 1",
" 	c #76C564",
".	c #7BCB69",
"+	c #BB6D33",
"@	c #DBB574",
"#	c #BBEEE9",
"$	c #D5A067",
"%	c #54DBF6",
"&	c #C57B54",
"*	c #8E5429",
"=	c #CB8C5D",
"-	c #50A7E8",
";	c #4280DD",
"  ..  ..  ..  ..  ..  ..  ++@@##",
"  ..  ..  ..  ..  ..  ..  ++@@##",
"..  ..  ..  ..  ..  ..  ..++@@##",
"..  ..  ..  ..  ..  ..  ..++@@##",
"  ..  ..  ..  ..  ..  ..  ++@@##",
"  ..  ..  ..  ..  ..  ..  ++@@##",
"..  ..  ..  ..  ..  ..  ..++@@##",
"..  ..  ..  ..  ..  ..  ..++@@##",
"  ..  ..  ..  ..  ..  ..++$$####",
"  ..  ..  ..  ..  ..  ..++$$####",
"..      ..  ..  ..  ..  ++$$##%%",
"..      ..  ..  ..  ..  ++$$##%%",
"      ..  ..  ..  ..  ..&&$$##%%",
"      ..  ..  ..  ..  ..&&$$##%%",
"..  ..  ..  ..  ..  ..  &&$$##%%",
"..  ..  ..  ..  ..  ..  &&$$##%%",
"  ..  ..  ..  ..  ..  ..&&$$##%%",
"  ..  ..  ..  ..  ..  ..&&$$##%%",
"..  ..  ..  ..**++++++&&++$$##%%",
"..  ..  ..  ..**++++++&&++$$##%%",
"  ..  ..  ..**++========++##%%--",
"  ..  ..  ..**++========++##%%--",
"++++++++++++**++========++%%----",
"++++++++++++**++========++%%----",
"============**++==$$$$==##;;----",
"============**++==$$$$==##;;----",
"@@@@@@@@@@@@**++==$$$$##%%;;----",
"@@@@@@@@@@@@**++==$$$$##%%;;----",
"@@@@@@@@@@@@##########%%;;;;----",
"@@@@@@@@@@@@##########%%;;;;----",
"##############%%%%%%%%;;;;------",
"##############%%%%%%%%;;;;------"};
