/* XPM */
static char * coinHD_xpm[] = {
"32 32 5 1",
" 	c #222222",
".	c #483B3A",
"+	c #775C55",
"@	c #AA8D7A",
"#	c #D3BFA9",
"   .    ... .      .    ... .   ",
" ..............+ ... +.........+",
"...............+...+. .........+",
"...............++.. ...........+",
" ..............+ ..............+",
".++............+...............+",
"   ++.....+..... ...............",
"     ++..+ ....+ ..............+",
"                     ...........",
"@@@@@@@@@@ .@@@@ @@@ ...........",
"@@@@@@@@@@ @@@@@ @@@ ..........+",
"########## ##### @@@ ...........",
"++++++++++ +++++ @@@ ...........",
".......... ..... @@@ ..........+",
".......... .. .. ### ..........+",
"                     +.++++.++++",
" ++ ++ ++ + ++++ @@@    ... .   ",
" ........ .. ... @@@ +.........+",
" ........ .. ... @@@  ..++.....+",
"                 @@@  ..  .....+",
"++ ++++ ++++ ++  @@@  +........+",
".. .... .... ..  ###    .......+",
". ...... ... ...        +.......",
"                 @@@     ......+",
"++ ++++ ++ ++++  @@@ ..  .......",
"..  ..  .. ....  @@@ ..........+",
".. .... ..... .  @@@ ..........+",
"                 @@@ ...........",
" ............... @@@ ...........",
" ..............+ ### ..........+",
" ..............+     ..........+",
"+++..+.++++.++++ @@@ +.++++.++++"};
