/* XPM */
static char * coinBD_xpm[] = {
"32 32 5 1",
" 	c #222222",
".	c #483B3A",
"+	c #AA8D7A",
"@	c #775C55",
"#	c #D3BFA9",
"   .    ... .    +++    ... .   ",
" ..............@ ### @.........@",
"...............@      .........@",
"...............@ +++ ..........@",
" ..............@ +++ ..........@",
".@@............@ +++ ..........@",
"   @@.....@..... +++ ...........",
"     @@..@ ....@ +++ ..........@",
"       @  ...... ### ...........",
"  ...   ........     ...........",
"  ....  @......@ +++ ..........@",
"  @..@ . ....... +++ ...........",
"                 +++ ...........",
"++++++++++ .++++ +++ ..........@",
"++++++++++ +++++ +++ ..........@",
"########## ##### ### @.@@@@.@@@@",
"@@  @@@@@@ @@@@ @@      ... .   ",
".... ..... .... .... @.........@",
". ........ .. . . ..  ..@@.....@",
"                      ..  .....@",
" @@@@@ @@ @ @@@@ @@@  @........@",
" ........ .. ... ...    .......@",
" . ...... .. ... . .    @.......",
"                         ......@",
"@@@  @@ @@@@ @@ @@@@ ..  .......",
"... ... .... .. .... ..........@",
"... .... ... ....... ..........@",
"                     ...........",
"@@ @@@@ @@ @@@@ @@ @ ...........",
"......  .. .... .... ..........@",
". ..... ..... . . .. ..........@",
"                     @.@@@@.@@@@"};
