/* XPM */
static char * D0_xpm[] = {
"32 32 9 1",
" 	c #7BCB69",
".	c #76C564",
"+	c #222222",
"@	c #314152",
"#	c #3D734F",
"$	c #FDF7ED",
"%	c #8F4029",
"&	c #D3BFA9",
"*	c #62232F",
"  ..  ..  ..  ..  ..  ..  ..  ..",
"  ..  ..  ..  ..  ..  ..  ..  ..",
"..  ..  ..  ..  ..  ..  ..  ..  ",
"..  ..  ..  ..  ..  ..  ..  ..  ",
"  ..  ..  ..  ..  ..  ..  ..  ..",
"  ..  ..  ..  ..  ..  ..  ..  ..",
"..  ..  ..  ..  ..  ..  ..  ..  ",
"..  ..  ..  ..  ..  ..  ..  ..  ",
"  ..  ..  ..  ..  ..  ..  ..  ..",
"  ..  ..  ..++++++++++..  ..  ..",
"..  ..  ..  +@#######+  ..  ..  ",
"..  ..  ..  +@#++++++++ ..  ..  ",
"  ..  ..  ..+@#+$$$$$$+.  ..  ..",
"  ..  ..  .+++++$++$$++.  ..  ..",
"..  ..  .. +%%%+$++$$++ ..  ..  ",
"..  ..  .. +++++$&&$$&+ ..  ..  ",
"  ..  ..  ..+@#+++$++$+.  ..  ..",
"  ..  ..  ..+@###++++++.  ..  ..",
"..  ..  ..  +@@@@@@@@+  ..  ..  ",
"..  ..  ..  +********+  ..  ..  ",
"  ..  ..  ..+%%%%%%%%+..  ..  ..",
"  ..  ..  ..+%%%%%%%%+..  ..  ..",
"..  ..  ..  +**++++**+  ..  ..  ",
"..  ..  ..  +*+ .. +++  ..  ..  ",
"  ..  ..  ..++..  ..  ..  ..  ..",
"  ..  ..  ..  ..  ..  ..  ..  ..",
"..  ..  ..  ..  ..  ..  ..  ..  ",
"..  ..  ..  ..  ..  ..  ..  ..  ",
"  ..  ..  ..  ..  ..  ..  ..  ..",
"  ..  ..  ..  ..  ..  ..  ..  ..",
"..  ..  ..  ..  ..  ..  ..  ..  ",
"..  ..  ..  ..  ..  ..  ..  ..  "};
