/* XPM */
static char * E_xpm[] = {
"32 32 214 2",
"  	c #7BCB69",
". 	c #76C564",
"+ 	c #75C363",
"@ 	c #78C666",
"# 	c #74C162",
"$ 	c #74C262",
"% 	c #79C867",
"& 	c #7ACA68",
"* 	c #76C464",
"= 	c #77C465",
"- 	c #7CCB6A",
"; 	c #77C565",
"> 	c #78C567",
", 	c #7DCB6B",
"' 	c #78C667",
") 	c #7FCC6F",
"! 	c #7AC669",
"~ 	c #81CC70",
"{ 	c #84CD74",
"] 	c #84C875",
"^ 	c #8CCA7F",
"/ 	c #7ECC6C",
"( 	c #79C668",
"_ 	c #7BC66A",
": 	c #7DCC6C",
"< 	c #887B63",
"[ 	c #7E4A50",
"} 	c #7CA660",
"| 	c #7DC76E",
"1 	c #83C271",
"2 	c #AB898D",
"3 	c #81C86E",
"4 	c #B5785E",
"5 	c #975D4F",
"6 	c #749A5A",
"7 	c #7FC36D",
"8 	c #7A444A",
"9 	c #AB6C53",
"0 	c #B2806F",
"a 	c #9DAA8E",
"b 	c #7DC26A",
"c 	c #7F484B",
"d 	c #DF955D",
"e 	c #B27454",
"f 	c #5E3643",
"g 	c #7EC76E",
"h 	c #7ECC6D",
"i 	c #80C870",
"j 	c #93C180",
"k 	c #79434A",
"l 	c #DA915C",
"m 	c #BB7B56",
"n 	c #7DC16B",
"o 	c #663B45",
"p 	c #BA7657",
"q 	c #9A6050",
"r 	c #6D4955",
"s 	c #79525B",
"t 	c #8A5A60",
"u 	c #877B62",
"v 	c #88595F",
"w 	c #734F5A",
"x 	c #6A4450",
"y 	c #613844",
"z 	c #B57356",
"A 	c #A16551",
"B 	c #8DBC7D",
"C 	c #633944",
"D 	c #B47156",
"E 	c #935C4E",
"F 	c #553240",
"G 	c #714147",
"H 	c #814B4B",
"I 	c #965950",
"J 	c #A26452",
"K 	c #A86953",
"L 	c #9E6051",
"M 	c #93574F",
"N 	c #7B464A",
"O 	c #6C3E46",
"P 	c #B06E55",
"Q 	c #7DC96B",
"R 	c #8E5A4C",
"S 	c #472D3C",
"T 	c #8E524E",
"U 	c #A96454",
"V 	c #BF7958",
"W 	c #DF945D",
"X 	c #EEA160",
"Y 	c #D48B5C",
"Z 	c #BC7658",
"` 	c #A25D53",
" .	c #824A4C",
"..	c #955E4E",
"+.	c #536546",
"@.	c #7FC56F",
"#.	c #563540",
"$.	c #613B43",
"%.	c #734448",
"&.	c #7A4A49",
"*.	c #7D4D49",
"=.	c #774848",
"-.	c #714347",
";.	c #5C3841",
">.	c #5C3742",
",.	c #7CB96B",
"'.	c #422D39",
").	c #452F3A",
"!.	c #51333D",
"~.	c #50333D",
"{.	c #422D38",
"].	c #4E313D",
"^.	c #82C674",
"/.	c #343032",
"(.	c #483139",
"_.	c #352C31",
":.	c #302C2E",
"<.	c #453138",
"[.	c #362C32",
"}.	c #78C268",
"|.	c #76C364",
"1.	c #623844",
"2.	c #A26053",
"3.	c #824E4B",
"4.	c #412D38",
"5.	c #442E39",
"6.	c #4E333C",
"7.	c #4D323B",
"8.	c #402D38",
"9.	c #4D313D",
"0.	c #9E5E52",
"a.	c #88524C",
"b.	c #7BCA69",
"c.	c #995751",
"d.	c #7B484A",
"e.	c #53333F",
"f.	c #5D3842",
"g.	c #6E4146",
"h.	c #734547",
"i.	c #764848",
"j.	c #714447",
"k.	c #6C4046",
"l.	c #573540",
"m.	c #593541",
"n.	c #955550",
"o.	c #74C063",
"p.	c #412F37",
"q.	c #553340",
"r.	c #975651",
"s.	c #673D44",
"t.	c #734647",
"u.	c #7D4F49",
"v.	c #945F4E",
"w.	c #9F6650",
"x.	c #8C594C",
"y.	c #7C4E48",
"z.	c #704346",
"A.	c #673C45",
"B.	c #65A557",
"C.	c #79C468",
"D.	c #444143",
"E.	c #44353D",
"F.	c #4B2F3D",
"G.	c #935450",
"H.	c #7A4749",
"I.	c #452D3B",
"J.	c #53323F",
"K.	c #5A3541",
"L.	c #4E313E",
"M.	c #50313E",
"N.	c #5C3542",
"O.	c #935350",
"P.	c #7F4A4A",
"Q.	c #7DCB6C",
"R.	c #82B575",
"S.	c #4A2E3D",
"T.	c #774349",
"U.	c #322C2F",
"V.	c #332D30",
"W.	c #342D30",
"X.	c #332C2F",
"Y.	c #3C2D35",
"Z.	c #492E3D",
"`.	c #754248",
" +	c #6A3D46",
".+	c #7FBD71",
"++	c #482E3C",
"@+	c #603843",
"#+	c #583541",
"$+	c #3A2C34",
"%+	c #5F3842",
"&+	c #7FC66F",
"*+	c #85C577",
"=+	c #58404E",
"-+	c #7BAC6E",
";+	c #7FC670",
">+	c #7FCC6E",
",+	c #7BCA6A",
"'+	c #7CC36C",
")+	c #7CA96F",
"!+	c #413B3E",
"~+	c #564C52",
"{+	c #7BC86A",
"]+	c #78BD68",
"^+	c #7BC36B",
"/+	c #81C872",
"(+	c #83C974",
"_+	c #5A5759",
":+	c #7EC46F",
"<+	c #7CCB6B",
"[+	c #81C573",
"}+	c #83CA74",
"|+	c #7CC76B",
"1+	c #80CC70",
"    . .     . .     . .     + + @ @ # $ % & * *     . .     . $ ",
"    . .     . .     . .     . .     . .     . .     . .     . . ",
". .     . .     . .     . .     . .     . .     . .     . .     ",
". .     . .     . .     . .     . .     . .     . .     . .     ",
"    . .     . .     . .     . .     . .     . .     . .     . = ",
"    . .   - . ;     > . - , . ' - ) ! . ~ { ] ^   / ( .     . ; ",
". .     ; _   : < [ }   . .     . |     1 [ [ 2 ' .     . .   - ",
". .     ; .   3 4 5 6   . . ,   . .     7 8 9 0 a . /   . .     ",
"    . . /   b c d e f ;     g _ - h . i j k l m f   ; .     . . ",
"    . .     n o p q f r s t t t t u v w x y z A f   . .     . . ",
". .     . . B C D E F G H I J K K L M N O f P q F . ,   . .     ",
". .     . . Q C D R S T U V W X X Y Z `  .f P ..+.@.-   . .     ",
"    . .     = C D R S #.$.%.&.*.*.=.-.;.>.f P ..S   . .     . . ",
"    . .     ,.C D R S '.).!.!.!.!.!.~.{.].f P ..S   ^..     . . ",
". *   / . /.(.C D R S _.:.:.:.:.:.:.:.:.<.f P ..S [.}.  . .     ",
". |.  - . /.(.1.2.3.S 4.5.6.6.6.6.6.7.8.9.f 0.a.S [.    . .     ",
"  b.. (   /.(.y c.d.S e.f.g.h.i.i.j.k.l.m.f n.H S [.. .     . . ",
"    . |   /.(.y c.d.S T U V W X X Y Z `  .f n.H S [.o..     . . ",
". .     . /.p.q.r.d.S s.t.u.v.w.w.x.y.z.A.f n.H S B.C.  . .     ",
". *     . D.E.F.G.H.S I.I.I.J.K.K.L.I.I.M.N.O.P.S +     . .     ",
"    . . , Q.R.S.T.A.S [.U.U.V.W.W.X.U.U.Y.Z.`. +S   ( .     . . ",
"    . (     .+++@+#+S _.:.:.:.:.:.:.:.:.$+S %+m.S   ' .     . . ",
". .   ) . . &+S S S S _.:.:.:.:.:.:.:.:.$+S S S S *+    . .     ",
". ;   ) . !     =+S S _.:.:.:.:.:.:.:.:.$+S S -+;+; - - . .     ",
"  , . '   >+. i ,+'+)+!+:.:.:.:.:.:.:.:.~+{+]+^+    ; .     . . ",
"  / . ;     . /+    (+_+:.:.:.:.:.:.:.:.:+- . ;   / . .     . . ",
". ;     . .     . . - <+[+[+<+<+> [+}+}+_ '     . .     . .     ",
". '     . .   - ( ;     ! ; - - . .     . .     ; |+/ - . .     ",
"    . .     . .     . .     . .     . .     . .     . .     . . ",
"    . .     . .     . .     . .     . .     . .     . .     . . ",
". .     . .     . .     . .     . .     . .     . .     . .     ",
". ; 1+>+' .     . .     . .     . .     . .     . .     . .     "};
