/* XPM */
static char * E_xpm[] = {
"32 32 21 1",
" 	c #7BCB69",
".	c #76C564",
"+	c #1A1C24",
"@	c #111318",
"#	c #191B22",
"$	c #272934",
"%	c #111217",
"&	c #0B0C10",
"*	c #181A21",
"=	c #303240",
"-	c #121419",
";	c #242631",
">	c #262833",
",	c #0F1015",
"'	c #171921",
")	c #0E0F13",
"!	c #0E0F14",
"~	c #111218",
"{	c #313341",
"]	c #121319",
"^	c #0B0C0F",
"  ..  ..  ..  ..  ..  ..  ..    ",
"..++++++++++++++++++++++++++++  ",
"  +@@@@@@@@@@@@@@@@@@@@@@@@@#+..",
"  +$$$$$%&&&&&&&&&&&&&&&&&&&*+..",
"..+=====-&&&&&&&&&&&&&&&&&&&*+  ",
"..+=====-&&&&&&&&&&&&&&&&&&&*+  ",
"  +=====-&&&&&&&&&&&&&&&&&&&*+..",
"  +=====-;;;;;>,&&&&&&&&&&&&*+..",
"..+=====-;;;;;>,&&&&&&&&&&&&*+  ",
"..+=====-;;;;;>,&&&&&&&&&&&&*+  ",
"  +=====-;;;;;>,&&&&&&&&&&&&*+..",
"  +=====-;;;;;>,''''')&&&&&&*+..",
"..+=====-;;;;;>,+++++!&&&&&&*+  ",
"..+=====-;;;;;>,+++++!&&&&&&*+  ",
"  +=====-;;;;;>,+++++!&&&&&&*+..",
"  +=====-;;;;;>,+++++~,,,,,&*+..",
"..+=====-;;;;;>,+++++~,,,,,&*+  ",
"..+=====-;;;;;>,+++++~,,,,,&*+  ",
"  +=====-;;;;;>,+++++~,,,,,&*+..",
"  +=====-;;;;;>,+++++~,,,,,&*+..",
"..+=====-;;;;;>,+++++~,,,,,&*+  ",
"..+=====-;;;;;>,+++++~,,,,,&*+  ",
"  +=====-;;;;;>,+++++~,,,,,&*+..",
"  +=====-;;;;;>,+++++~,,,,,&*+..",
"..+=====-;;;;;>,+++++~,,,,,&*+  ",
"..+=====-;;;;;>,+++++~,,,,,&*+  ",
"  +=====-;;;;;>,+++++~,,,,,&*+..",
"  +=====-;;;;;>,+++++~,,,,,&*+..",
"..+{{{{{];;;;;>,+++++~,,,,,^*+  ",
"..++++++++++++++++++++++++++++  ",
" ..  ..  ..  ..  ..  ..  ..  ...",
" ..  ..  ..  ..  ..  ..  ..  ..."};
