/* XPM */
static char * E_xpm[] = {
"32 32 159 2",
"  	c #7BCB69",
". 	c #76C564",
"+ 	c #75C463",
"@ 	c #75C363",
"# 	c #7BCA69",
"$ 	c #7ACA68",
"% 	c #76C464",
"& 	c #79C868",
"* 	c #7AC968",
"= 	c #7AC868",
"- 	c #79C767",
"; 	c #75C464",
"> 	c #78C566",
", 	c #73BE61",
"' 	c #79C867",
") 	c #77C665",
"! 	c #79C667",
"~ 	c #75C263",
"{ 	c #78C466",
"] 	c #71B560",
"^ 	c #6DB15C",
"/ 	c #C56126",
"( 	c #C2682B",
"_ 	c #76B862",
": 	c #76C364",
"< 	c #76BB62",
"[ 	c #BD7332",
"} 	c #72BD61",
"| 	c #75C164",
"1 	c #78C567",
"2 	c #75BE63",
"3 	c #C06D2E",
"4 	c #BF6F30",
"5 	c #76C263",
"6 	c #76BA62",
"7 	c #76B962",
"8 	c #7EB45E",
"9 	c #7EB55E",
"0 	c #75C063",
"a 	c #C2682A",
"b 	c #6DAF5C",
"c 	c #77C565",
"d 	c #76B461",
"e 	c #76BC62",
"f 	c #75B961",
"g 	c #C56025",
"h 	c #324A2D",
"i 	c #385632",
"j 	c #C16328",
"k 	c #5D8D49",
"l 	c #588C4B",
"m 	c #BE6A2D",
"n 	c #BA7B37",
"o 	c #72BE60",
"p 	c #70BD5F",
"q 	c #6BAE5A",
"r 	c #5F9F51",
"s 	c #BF6C2E",
"t 	c #222222",
"u 	c #B6672D",
"v 	c #B27032",
"w 	c #B57032",
"x 	c #242823",
"y 	c #2B3B28",
"z 	c #6CB65C",
"A 	c #6BB25B",
"B 	c #222322",
"C 	c #B2652C",
"D 	c #2D2422",
"E 	c #283025",
"F 	c #BE5D25",
"G 	c #A5642E",
"H 	c #252B24",
"I 	c #4A7940",
"J 	c #74C162",
"K 	c #76C063",
"L 	c #72BE62",
"M 	c #76B861",
"N 	c #4B7941",
"O 	c #2E412A",
"P 	c #C46025",
"Q 	c #C25F25",
"R 	c #AD5524",
"S 	c #232323",
"T 	c #242323",
"U 	c #252C25",
"V 	c #4A7941",
"W 	c #76B762",
"X 	c #76BE62",
"Y 	c #6DB65D",
"Z 	c #6DB65C",
"` 	c #C45F25",
" .	c #262D25",
"..	c #385431",
"+.	c #6FBA5E",
"@.	c #79C766",
"#.	c #5F9C51",
"$.	c #293527",
"%.	c #2B3A28",
"&.	c #5E9C50",
"*.	c #7AC767",
"=.	c #3D5F35",
"-.	c #8F4029",
";.	c #2A3828",
">.	c #5D9A50",
",.	c #375531",
"'.	c #67AC58",
").	c #293427",
"!.	c #5E9B50",
"~.	c #64A655",
"{.	c #354E2F",
"].	c #355230",
"^.	c #68AD58",
"/.	c #62232F",
"(.	c #30452C",
"_.	c #70B45E",
":.	c #76BD63",
"<.	c #344E2F",
"[.	c #242824",
"}.	c #334B2D",
"|.	c #5F232E",
"1.	c #61232F",
"2.	c #283326",
"3.	c #4E7F43",
"4.	c #73BF61",
"5.	c #75B761",
"6.	c #587347",
"7.	c #603C32",
"8.	c #6CA95A",
"9.	c #73B960",
"0.	c #69AD59",
"a.	c #365131",
"b.	c #535235",
"c.	c #66643F",
"d.	c #406538",
"e.	c #426A3A",
"f.	c #676A40",
"g.	c #67653F",
"h.	c #676840",
"i.	c #655439",
"j.	c #655A3B",
"k.	c #655139",
"l.	c #355130",
"m.	c #65583B",
"n.	c #66623E",
"o.	c #76C463",
"p.	c #76BD62",
"q.	c #72BF61",
"r.	c #76C365",
"s.	c #75C163",
"t.	c #74C062",
"u.	c #77C265",
"v.	c #76C064",
"w.	c #70B35F",
"x.	c #76C264",
"y.	c #72BC60",
"z.	c #74BE62",
"A.	c #78C766",
"B.	c #79C967",
"    . .     . .     . .     . .     . .     . .     . .     . . ",
"    . .     . .     + @ # $ . .     . .     . .     . .     . . ",
". .     . .     . .     . .     . %     . . # # . .     . .     ",
". .     . .     . . # & @ % * # % % = - @ ; - > , @     . .     ",
"    . .     . . # $ . %   # . % = * + @ . . . . ' * . .     . . ",
"    . .     % % # = . . * * + . ' ' . . ) ) . . . . . .     . . ",
". .     . .     % @     . .   . . . . . . @ % . . . . * + .     ",
". .     . . = ! ~ ~ { * % % ' * . . . . . . $ ) . . . * . .     ",
"    . . * ] + ^ / ( _ : . . . . . . . . . < ( [ } . . . | & . . ",
"    . ~ 1 2 . . 3 4 5 % 6 7 7 7 7 7 8 9 ~ 0 4 a b . . . . c . . ",
". . - * d e . f ( g h i ( ( ( ( ( ( / j k l m n o p . . . . . $ ",
". % c % : . q r s g t t g g g g g g g u t t v w x y z . . . . $ ",
"  . . . . A t B C g t t t t t t t t D D E B F G H t I J K . . . ",
"$ L M . J N t O P g t t t t t t t t t t t t Q R S T U V W X % . ",
". Y . ; Z t t t ` g t t g g g g g g g g t t g P t t t  ...+.. @.",
". J . +.#.t $.t g g t t g g g g g g g g t t g g t t t t %.&.. *.",
"' . . + =.t t t -.-.t t t t t t t t t t t t -.-.t t t t ;.>.. ~ ",
") . . + ,.t t t -.-.t t t t t t t t t t t t -.-.t t t t $.>.. ~ ",
". % . '.;.t t t -.-.t t -.-.-.-.-.-.-.-.t t -.-.t t t t ).!.. - ",
". . ~.{.t t t t -.-.t t -.-.-.-.-.-.-.-.t t -.-.t t t t ].^.. ' ",
"$ , . _ %.t t t /./.t t t t t t t t t t t t /./.t t t (.% < . % ",
"  _.. :.<.[.x }.|./.t t t t t t t t t t t t /.1.2.t B 3.% 5 . . ",
". + . 4.5.6.t B t |.t t /./././././././.t t /.7.t 8.9.7 J . . $ ",
". . . . . @ 0.a.b.c.d.e.f.f.g.h.i.j.k.k.l.l.m.n.} o.. p.. . )   ",
"  $ @ . . . J q.@ . . . . . . . % . % % % % . % @ r.s.t.- # . . ",
"    % % & u.% % . . . . . . . . . . . . . . . . . . . . ' $ . . ",
". .   # @ , v.w.} t.x.: t.y.z.@ + % . % % % . % . . . . . . . . ",
". .   # % @ $ 1 % ~ ! - @ + # $ % . * $ % % # $ . . $ $ . . A.B.",
"    . .     . .     . .     . .     . .     . .     . .     . . ",
"    . .     . .     . .     . .     . .     . .     . .     . . ",
". .     . .     . .     . .     . .     . . . . . .     . .     ",
". .     . .     . .     . .     . .     . . . . . .     . .     "};
