/* XPM */
static char * E3_xpm[] = {
"32 32 6 1",
" 	c #775C55",
".	c #222222",
"+	c #483B3A",
"@	c #3B3332",
"#	c #2B2929",
"$	c #302C2B",
" ....................... ...+...",
" ....................... .++++++",
" .@++################### +++++++",
" .@+++..#.#.#.#.....#..# +++++++",
" .@+++........#......... .++++++",
" .@+++$@@...#.......#... +++++++",
"+.@+++$@@@..............+.++++++",
" .@@@@$@@@############## .++++++",
"+.@@@@$@@@@#############+.++++++",
" .@+++$@@@@++...#.#.#.#. +++++++",
" .@+++$@@@@+++....#...#. +++++++",
"+.@+++$@@@@+++......#...+.++++++",
"+.@+++$$$$$+++$@@.......+.++++++",
" .@+++$@@@@+++$@@@...... .++++++",
" .@+++$@@@@@@@$@@@...... .++++++",
" .@+++$@@@@+++$@@@@++###    ++ +",
" .@+++$@@@@+++$@@@@+++.. ...+...",
"+.@+++$@@@@+++$@@@@+++..+.++++++",
"+.@+++$@@@@+++$$$$$+++$@++++++++",
" .@+++$@@@@+++$@@@@+++$@ +++++++",
" .@+++$@@@@+++$@@@@@@@$@ .++++++",
" .@+++$@@@@+++$@@@@+++$@ +  ++++",
" .@+++$@@@@+++$@@@@+++$@ ...  ++",
"+.@+++$@@@@+++$@@@@+++$@+.....  ",
"+.@+++$@@@@+++$@@@@+++$$+.......",
" .@+++$@@@@+++$@@@@+++$@ ..+++..",
" .@+++$@@@@+++$@@@@+++$@ ..++++.",
" .@+++$@@@@+++$@@@@+++$@ .. ++ .",
" .@+++$@@@@+++$@@@@+++$@ ...  ..",
"...............................+",
".++.++ ++++.++++.++++.++.......+",
". ++++++++.+++++.+++ +++.   .. +"};
