/* XPM */
static char *_9beee869b4b4094e744417aad3c22dbfrKVjxMyBnwTNrsp[] = {
/* columns rows colors chars-per-pixel */
"32 32 3 1 ",
"  c #222222",
". c #483B3A",
"X c #775C55",
/* pixels */
"   .    ... .      .    ... .   ",
" ..............X ..............X",
"...............X...............X",
"...............X...............X",
" ..............X ...X..........X",
"...............X..XX  X........X",
" ............... .  ..  X.......",
" ..............X  ...... ......X",
" ............... ........ XX....",
"...............X........ X  XXXX",
"...............X.......X ...   X",
" ............... .....X ........",
" ............... ..... .........",
" ..............X ....X ........X",
" ..............X ....  ........X",
"XXX..X.XXXX.XXXXXXX.XX.XXXX.XXXX",
"   .    ... .      .    ... .   ",
" ..............X ... X.........X",
"...............X...X. .........X",
"...............XX.. ...........X",
" ..............X ..............X",
".XX............X...............X",
"   XX.....X..... ...............",
"     XX..X ....X ..............X",
"       X  ...... ...............",
"  ...   ........ ...............",
"  ....  X......X ..............X",
"  X..X . ....... ...............",
"   XX  ......... ...............",
"      .........X ..X ..........X",
"      .........X .X ...........X",
"XXX  X.XXXX.XXXXXXX  X.XXXX.XXXX"
};
