/* XPM */
static char *ad8c6aefc62e4031c3b19b76e5bcd0be6D18gBVBGdAonmEZ[] = {
/* columns rows colors chars-per-pixel */
"16 16 3 1 ",
"  c #222222",
". c #483B3A",
"X c #775C55",
/* pixels */
"   .    ... .   ",
" ..............X",
"...............X",
"...............X",
" ...X..........X",
"..XX  X........X",
" .  ..  X.......",
"  ...... ......X",
" ........ XX....",
"........ X  XXXX",
".......X ...   X",
" .....X ........",
" ..... .........",
" ....X ........X",
" ....  ........X",
"XXX.XX.XXXX.XXXX"
};
