/* XPM */
static char *ac2b5b9ddb2444f2d19720f25ad0f338d6BZ5WwSv9ncvvZB[] = {
/* columns rows colors chars-per-pixel */
"16 16 5 1 ",
"  c None",
". c #AA7959",
"X c #B78A62",
"o c #C49A6C",
"O c #E8CFA6",
/* pixels */
"                ",
"      XXXX      ",
"     XOOOOX     ",
"     XOOOOX     ",
"ooooX.oOOo.Xoooo",
"......oooo......",
"     .oooo.     ",
"ooooX.o..o.Xoooo",
"......o..o......",
"......X..X......",
"     .X..X.     ",
"      X..X      ",
"       ..       ",
"       ..       ",
"       ..       ",
"       ..       "
};
