/* XPM */
static char * P7_xpm[] = {
"32 32 15 1",
" 	c #7BCB69",
".	c #76C564",
"+	c #E5D972",
"@	c #B29547",
"#	c #AF7F60",
"$	c #000000",
"%	c #E4C094",
"&	c #44001B",
"*	c #63788E",
"=	c #790C25",
"-	c #500106",
";	c #141728",
">	c #37435C",
",	c #DCD0B8",
"'	c #AA222B",
"  ..  ..  ..  ..  ..  ..  ..  ..",
"  ..  ..  ..  ..  ..  ..  ..  ..",
"..  ..  ..  .. +++++..  ..  ..  ",
"..  ..  ..  ..+@+++++.  ..  ..  ",
"  ..  ..  .. @@+@###+ ..  ..  ..",
"  ..  ..  .. @@+#$%$  ..  ..  ..",
"..  ..  ..  ..@#%%%%..  ..  ..  ",
"..  ..  ..  ..&#%%%%..  ..  ..  ",
"  ..  ..  .. &&&###&  $$$$$*  ..",
"  ..  ..  .. &&&&&=&*$$$$$$$* ..",
"..  ..  .. &&&=-&=&=**$$$$$$*.  ",
"..  ..  ..&&&&&==&=;>*;;;;>$*.  ",
"  ..  ..  &&==;&&&;>>>$$;$$$* ..",
"  ..  .. &&==;;;;;>>>*&&#$$$* ..",
"..  ..  .&==.;;;;>>>>&&&#$$$*.  ",
"..  .. $$&= .$;;>>**.$$$;$$$>.  ",
"  ..  ..$##$$ ;;>**> $;;;;>$* ..",
"  ..  .. #$$  =&==== $$$$$$$> ..",
"..  ..  .$$$,.&&=&==.$$$$$$$>.  ",
"..  ..  .$ ,,,;&=&=>>.$$$$$>..  ",
"  ..  ..$ ..,,,&&&=>**..  ..  ..",
"  ..  ..  .>;,,,=&=>>**.  ..  ..",
"..  ..  ..==;;,,,&&;>== ..  ..  ",
"..  ..  .='=;;&,,,;;&=' ..  ..  ",
"  ..  .. ==&& &&,,,&;==.  ..  ..",
"  ..  ..>>;;  &.&,,,;>..  ..  ..",
"..  .. =&;; ..  .&,,,.  ..  ..  ",
"..  ..=&&.  ..  .&&,,,  ..  ..  ",
"  ..  &&  ..  ..&&=.,,,.  ..  ..",
"  .. =&.  ..  ..&=.. ,,,  ..  ..",
"..  =&& ..  ..  &&= ..,,,.  ..  ",
"..  ..  ..  ..  ..  ..  ..  ..  "};
