/* XPM */
static char * wallu_xpm[] = {
"32 32 5 1",
" 	c #54DBF6",
".	c #BBEEE9",
"+	c #D5A067",
"@	c #7BCB69",
"#	c #76C564",
"                                ",
"                                ",
"......++@@##@@##@@##@@##++......",
"......++@@##@@##@@##@@##++......",
"++++##@@##@@##@@##@@##@@##@@++++",
"++++##@@##@@##@@##@@##@@##@@++++",
"@@##@@##@@##@@##@@##@@##@@##@@##",
"@@##@@##@@##@@##@@##@@##@@##@@##",
"##@@##@@##@@##@@##@@##@@##@@##@@",
"##@@##@@##@@##@@##@@##@@##@@##@@",
"@@##@@##@@##@@##@@##@@##@@##@@##",
"@@##@@##@@##@@##@@##@@##@@##@@##",
"##@@##@@##@@##@@##@@##@@##@@##@@",
"##@@##@@##@@##@@##@@##@@##@@##@@",
"@@##@@##@@##@@##@@##@@##@@##@@##",
"@@##@@##@@##@@##@@##@@##@@##@@##",
"##@@##@@##@@##@@##@@##@@##@@##@@",
"##@@##@@##@@##@@##@@##@@##@@##@@",
"@@##@@##@@##@@##@@##@@##@@##@@##",
"@@##@@##@@##@@##@@##@@##@@##@@##",
"##@@##@@##@@##@@##@@##@@##@@##@@",
"##@@##@@##@@##@@##@@##@@##@@##@@",
"@@##@@##@@##@@##@@##@@##@@##@@##",
"@@##@@##@@##@@##@@##@@##@@##@@##",
"##@@##@@##@@##@@##@@##@@##@@##@@",
"##@@##@@##@@##@@##@@##@@##@@##@@",
"@@##@@##@@##@@##@@##@@##@@##@@##",
"@@##@@##@@##@@##@@##@@##@@##@@##",
"##@@##@@##@@##@@##@@##@@##@@##@@",
"##@@##@@##@@##@@##@@##@@##@@##@@",
"@@##@@##@@##@@##@@##@@##@@##@@##",
"@@##@@##@@##@@##@@##@@##@@##@@##"};
