/* XPM */
static char * wall_int_xpm[] = {
"32 32 12 1",
" 	c #7BCB69",
".	c #76C564",
"+	c #3A3A50",
"@	c #46465E",
"#	c #565972",
"$	c #5E4E50",
"%	c #7D6961",
"&	c #9E8277",
"*	c #A5907B",
"=	c #B5A07F",
"-	c #CBBD97",
";	c #69AD59",
"  ..  ..  ..  ..  ..  ..  ..  ..",
"  ..  ..  ..  ..  ..  ..  ..  ..",
"..  ..  ..  ..  ..  ..  ..  ..  ",
"..  ..  ..  ..  ..  ..  ..  ..  ",
"  ..  ..  ..  ..  ..  ..  ..  ..",
"  ..  ..  .. +++++++@#..  ..  ..",
"..  ..  .. ++$%%&*=---##..  ..  ",
"..  ..  .++$%%&**===----#.  ..  ",
"  ..  ..+$%%&***=-====---#..  ..",
"  ..  ..++$%%%%&*===-===--#.  ..",
"..  .. +$$$$$&****=**=-==-@ ..  ",
"..  .. +$$$$$$**==****&&%%%+..  ",
"  ..  .+$$$$$$$&***&&%%%&&%+  ..",
"  ..  .+$$$$$$$$&&%%%%%%%&%+  ..",
"..  .. +$$$$$$$+%%%%%&%%%&%+..  ",
"..  .. $++@###%+%%%%%%&%%&%+..  ",
"  ..  ++&*****#%&%%%%&*%%%%+  ..",
"  .. +&***===--#%%%%%&*%%;%+  ..",
"..  +$%****===--@%%%%&%%%%;+;.  ",
"..  +$$&****====+%%+++###%;+;.  ",
"  ..+$$%&*****&&++@&==--=#;;;;..",
"  ..+$$$&&&&&&%%++@%&&***+;;; ..",
".. ;+%$$$&%%%%%%+;+$%&+++;; ..  ",
"..;;+%$$$%$%%%%%+;;+;+;;;;  ..  ",
"  .;+;$$$$+%%%;$+;;;;;;.  ..  ..",
"  ..;;$$$$;$%+;+;;;.  ..  ..  ..",
"..  .;++;+;++;;;;;  ..  ..  ..  ",
"..  ..;;;;;;;;;;;;  ..  ..  ..  ",
"  ..  ..  ..  ..  ..  ..  ..  ..",
"  ..  ..  ..  ..  ..  ..  ..  ..",
"..  ..  ..  ..  ..  ..  ..  ..  ",
"..  ..  ..  ..  ..  ..  ..  ..  "};
