/* XPM */
static char *_6c7109a59164c52d9b45fcdead88df6mKpKAtQp7ewgjuJ9[] = {
/* columns rows colors chars-per-pixel */
"32 32 5 1 ",
"  c #222222",
". c #483B3A",
"X c #775C55",
"o c #AA8D7A",
"O c #D3BFA9",
/* pixels */
"   .    ... .      .    ... .   ",
" ..............X ... X.........X",
"...............X...X. .........X",
"...............XX.. ...........X",
" ..............X ..............X",
".XX............X...............X",
"   XX.....X..... ...............",
"     XX..X ....X ..............X",
"                                ",
" .ooooooo. oooooooooo .ooooooo. ",
" ooooooooo oooooooooo ooooooooo ",
" OOOOOOOOO OOOOOOOOOO OOOOOOOOO ",
" XXXXXXXXX XXXXXXXXXX XXXXXXXXX ",
" ......... .......... ......... ",
" .. ... .. .......... .. ... .. ",
"                                ",
"X XXXXXXX X XX XX XX X XXXXXXX X",
".. ..... .. ........ .. ..... ..",
".. ..... .. ........ .. ..... ..",
"                                ",
"XX XX XX XXXX XXXX XXXX XX XX XX",
".. .. .. .... .... .... .. .. ..",
".. ..... ... ...... ... ..... ..",
"                                ",
" XXXX XXXX XX XXXX XX XXXX XXXX ",
" .... .... ..  ..  .. .... .... ",
"... . . ..... .... ..... . . ...",
"                                ",
" ............... ...............",
" ..............X ..............X",
" ..............X ..............X",
"XXX..X.XXXX.XXXXXXX..X.XXXX.XXXX"
};
