/* XPM */
static char *e22b27496b2f49f3c9028c12deedfe08uSHH2AjVgLYWA1qD[] = {
/* columns rows colors chars-per-pixel */
"32 32 8 1 ",
"  c #222222",
". c #483B3A",
"X c #775C55",
"o c #8F4029",
"O c #DA4E38",
"+ c #EE8E2E",
"@ c #AA8D7A",
"# c #D3BFA9",
/* pixels */
"   .    ... .      .    ... .   ",
" ..........          X.........X",
".......... .......... .........X",
".......... X@@@@@@@@X .........X",
" ......... @@@@@@@@@@ .........X",
".XX....... ###X###### .........X",
"   XX..... XXXXXXXXXX ..........",
"     XX..X  X X X X   .........X",
"            ........            ",
" .@@@@@@@. .XX....XX. .@@@@@@@. ",
" @@@@@@@@@ .  X..X  . @@@@@@@@@ ",
" #########   X .. X   ######### ",
" XXXXXXXXX  ...  ...  XXXXXXXXX ",
" .........    X  X    ......... ",
" .. ... .. .   oo   . .. ... .. ",
"            .. Oo ..            ",
"X XXXXXXX X  . Oo .    XXXXXXX X",
".. ..... ..    O+    .. ..... ..",
".. ..... ..    O+    .. ..... ..",
"           XX  O+  XX           ",
"XX XX XXX X..X O+ X..X XXX XX XX",
".. .. ..X ....OO+ .... X.. .. ..",
".. .....X O OO++++OO O X..... ..",
"        X O+OOOOOOOO+O X        ",
" XXXX XXX OO++++++++OO XXX XXXX ",
" .... ..XX OOOOOOOOOO XX.. .... ",
"... . . .XX          XX. . . ...",
"        ..XXXXXXXXXXXX..        ",
" ...............................",
" ..............................X",
" ..............X ..............X",
"XXX..X.XXXX.XXXXXXX..X.XXXX.XXXX"
};
