/* XPM */
static char *_79b11c2f2de4308f224ded472a1df64JIykAO6HQx5JXA0H[] = {
/* columns rows colors chars-per-pixel */
"32 32 5 1 ",
"  c #222222",
". c #483B3A",
"X c #775C55",
"o c #AA8D7A",
"O c #D3BFA9",
/* pixels */
"   .    ... ooo    .    ... .   ",
" .......... ooo  ... X.........X",
"........... ooo ...X. .........X",
"........... ooo X.. ...........X",
" .......... ooo  ..............X",
".XX........ OOO ...............X",
"   XX.....X      ...............",
"     XX..X  ooo  ..............X",
"       X  . ooo  ...............",
"  ...   ... ooo  ...............",
"  ....  X.. ooo  ..............X",
"  X..X . .. ooo  ...............",
"   XX  .... OOO  ...............",
"      .....      ..X ..........X",
"      ..... ooo  .X ...........X",
"XXX  X.XXXX ooo XXX  X.XXXX.XXXX",
"   .        ooo         ... .   ",
" .......    ooo     XX.........X",
"..........  ooo       ..XX.....X",
"........... OOO .     ..  .....X",
" .........X           X........X",
".........X  ooo .       .......X",
" ........   ooo         X.......",
" .......... ooo  ..X     ......X",
" ........XX ooo  .. ...  .......",
"........    ooo ...............X",
".........   OOO ...............X",
" ..........      ...............",
" .......... ooo  ...............",
" .......... ooo  ..............X",
" .......... ooo  ..............X",
"XXX..X.XXXX ooo XXX..X.XXXX.XXXX"
};
