/* XPM */
static char *_61007b37bca43a6f5f6bc7dc409f6aakAC8djUBmfkird7P[] = {
/* columns rows colors chars-per-pixel */
"32 32 5 1 ",
"  c #222222",
". c #483B3A",
"X c #775C55",
"o c #AA8D7A",
"O c #D3BFA9",
/* pixels */
"   .    ... .    ooo    ... .   ",
" ..............X ooo X.........X",
"...............X ooo  .........X",
"...............X ooo ..........X",
" ..............X ooo ..........X",
".XX............X OOO ..........X",
"   XX.....X.....     ...........",
"     XX..X ....X ooo ..........X",
"       X  ...... ooo ...........",
"  ...   ........ ooo ...........",
"  ....  X......X ooo ..........X",
"  X..X . ....... ooo ...........",
"   XX  ......... OOO ...........",
"      .........X     ..........X",
"      .........X ooo ..........X",
"XXX  X.XXXX.XXXX ooo X.XXXX.XXXX",
"   .        .    ooo    ... .   ",
" .......       X ooo X.........X",
"..........       ooo  ..XX.....X",
"...........      OOO  ..  .....X",
" .........X    X      X........X",
".........X     X ooo    .......X",
" ........  ..  . ooo    X.......",
" ...........X  X ooo     ......X",
" ........XX.   . ooo ..  .......",
"........   ....X ooo ..........X",
".........  ....X OOO ..........X",
" ...............     ...........",
" ............... ooo ...........",
" ..............X ooo ..........X",
" ..............X ooo ..........X",
"XXX..X.XXXX.XXXX ooo X.XXXX.XXXX"
};
