/* XPM */
static char * wallr_xpm[] = {
"32 32 8 1",
" 	c #7BCB69",
".	c #76C564",
"+	c #C57B54",
"@	c #D5A067",
"#	c #BBEEE9",
"$	c #54DBF6",
"%	c #BB6D33",
"&	c #DBB574",
"  ..  ..  ..  ..  ..  ..++@@##$$",
"  ..  ..  ..  ..  ..  ..++@@##$$",
"..  ..  ..  ..  ..  ..  ++@@##$$",
"..  ..  ..  ..  ..  ..  ++@@##$$",
"  ..  ..  ..  ..  ..  ..++@@##$$",
"  ..  ..  ..  ..  ..  ..++@@##$$",
"..  ..  ..  ..  ..  ..  ++@@##$$",
"..  ..  ..  ..  ..  ..  ++@@##$$",
"  ..  ..  ..  ..  ..  ..%%@@##$$",
"  ..  ..  ..  ..  ..  ..%%@@##$$",
"..  ..  ..  ..  ..  ..  %%@@####",
"..  ..  ..  ..  ..  ..  %%@@####",
"  ..  ..  ..  ..  ..  ..  %%&&##",
"  ..  ..  ..  ..  ..  ..  %%&&##",
"..  ..  ..  ..  ..  ..  ..%%&&##",
"..  ..  ..  ..  ..  ..  ..%%&&##",
"  ..  ..  ..  ..  ..  ..  %%&&##",
"  ..  ..  ..  ..  ..  ..  %%&&##",
"..  ..  ..  ..  ..  ..  ..%%&&##",
"..  ..  ..  ..  ..  ..  ..%%&&##",
"  ..  ..  ..  ..  ..  ..  %%&&##",
"  ..  ..  ..  ..  ..  ..  %%&&##",
"..  ..  ..  ..  ..  ..  %%@@####",
"..  ..  ..  ..  ..  ..  %%@@####",
"  ......  ..  ..  ..  ..%%@@##$$",
"  ......  ..  ..  ..  ..%%@@##$$",
"......  ..  ..  ..  ..  ++@@##$$",
"......  ..  ..  ..  ..  ++@@##$$",
"  ..  ..  ..  ..  ..  ..++@@##$$",
"  ..  ..  ..  ..  ..  ..++@@##$$",
"..  ..  ..  ..  ..  ..  ++@@##$$",
"..  ..  ..  ..  ..  ..  ++@@##$$"};
