/* XPM */
static char * wallu_xpm[] = {
"32 32 6 1",
" 	c #50A7E8",
".	c #54DBF6",
"+	c #7BCB69",
"@	c #76C564",
"#	c #D5A067",
"$	c #BBEEE9",
"                                ",
"                                ",
"                                ",
"                                ",
"                                ",
"                                ",
"                                ",
"                                ",
"                                ",
"                                ",
"                                ",
"..........            ..........",
"..........            ..........",
"................................",
"................................",
"++@@++@@##$$$$$$$$$$$$##++@@++@@",
"++@@++@@##$$$$$$$$$$$$##++@@++@@",
"@@++@@++@@++########@@++@@++@@++",
"@@++@@++@@++########@@++@@++@@++",
"++@@++@@++@@++@@++@@++@@++@@++@@",
"++@@++@@++@@++@@++@@++@@++@@++@@",
"@@++@@++@@++@@++@@++@@++@@++@@++",
"@@++@@++@@++@@++@@++@@++@@++@@++",
"++@@++@@++@@++@@++@@++@@++@@++@@",
"++@@++@@++@@++@@++@@++@@++@@++@@",
"@@++@@++@@++@@++@@++@@++@@++@@++",
"@@++@@++@@++@@++@@++@@++@@++@@++",
"++@@++@@++@@++@@++@@++@@++@@++@@",
"++@@++@@++@@++@@++@@++@@++@@++@@",
"@@++@@++@@++@@++@@++@@++@@++@@++",
"@@++@@++@@++@@++@@++@@++@@++@@++",
"++@@++@@++@@++@@++@@++@@++@@++@@"};
