/* XPM */
static char * walld_xpm[] = {
"32 32 7 1",
" 	c #222222",
".	c #483B3A",
"+	c #775C55",
"@	c #AA8D7A",
"#	c #D3BFA9",
"$	c #493C3A",
"%	c #443837",
"   .    ... .      .    ... .   ",
" ..............+ ..............+",
"...............+...............+",
"...............+...............+",
" ..............+ ...+..........+",
"...............+..++  +........+",
" ............... .  ..  +.......",
" ..............+  ...... ......+",
" ............... ........ ++....",
"...............+........ +  ++++",
"...............+.......+ ...   +",
" ............... .....+ ........",
"                                ",
"@@@@@@@@@@@. @@@@@@@@@@@@@@ .@@@",
"@@@@@@@@@@@@ @@@@@@@@@@@@@@ @@@@",
"############ ############## ####",
" ++++++ ++++ ++  ++++++++++ ++++",
". ..... .... .... ......... ....",
"....... .. . . ............ .. .",
"                                ",
"+++ ++ + ++++ +++++ ++  ++   ++ ",
"...... .. ... ........ ...  ... ",
"...... .. ... . ...... ...  ... ",
"                                ",
"  ++ ++++ ++ +++  ++ +++ ++ + ++",
" ... .... .. ... ... ... .. .. .",
" .... ... ...... .... ... . ....",
"                                ",
"++++ ++ ++++ ++ ++++ +++ ++ ++ +",
"...  .. .... ....$$  $$.... ....",
".... ..... . . ..$.. . %..$ . ..",
"                                "};
