/* XPM */
static char * wallu_xpm[] = {
"32 32 4 1",
" 	c #76C564",
".	c #D5A067",
"+	c #BBEEE9",
"@	c #7BCB69",
"  ..++++++++++++..@@  @@  @@  @@",
"  ..++++++++++++..@@  @@  @@  @@",
"@@  @@........  @@  @@  @@  @@  ",
"@@  @@........  @@  @@  @@  @@  ",
"  @@  @@  @@  @@  @@  @@  @@  @@",
"  @@  @@  @@  @@  @@  @@  @@  @@",
"@@  @@  @@  @@  @@  @@  @@  @@  ",
"@@  @@  @@  @@  @@  @@  @@  @@  ",
"  @@  @@  @@  @@  @@  @@  @@  @@",
"  @@  @@  @@  @@  @@  @@  @@  @@",
"@@  @@  @@  @@  @@  @@  @@  @@  ",
"@@  @@  @@  @@  @@  @@  @@  @@  ",
"  @@  @@  @@  @@  @@  @@  @@  @@",
"  @@  @@  @@  @@  @@  @@  @@  @@",
"@@  @@  @@  @@  @@  @@  @@  @@  ",
"@@  @@  @@  @@  @@  @@  @@  @@  ",
"  @@  @@  @@  @@  @@  @@  @@  @@",
"  @@  @@  @@  @@  @@  @@  @@  @@",
"@@  @@  @@  @@  @@  @@  @@  @@  ",
"@@  @@  @@  @@  @@  @@  @@  @@  ",
"  @@  @@  @@  @@  @@  @@  @@  @@",
"  @@  @@  @@  @@  @@  @@  @@  @@",
"@@  @@  @@  @@  @@  @@  @@  @@  ",
"@@  @@  @@  @@  @@  @@  @@  @@  ",
"  @@  @@  @@  @@  @@  @@  @@  @@",
"  @@  @@  @@  @@  @@  @@  @@  @@",
"@@  @@  @@  @@  @@  @@  @@  @@  ",
"@@  @@  @@  @@  @@  @@  @@  @@  ",
"  @@  @@  @@  @@  @@  @@  @@  @@",
"  @@  @@  @@  @@  @@  @@  @@  @@",
"@@  @@  @@  @@  @@  @@      @@  ",
"@@  @@  @@  @@  @@  @@      @@  "};
