/* XPM */
static char * walld_xpm[] = {
"32 32 10 1",
" 	c #76C564",
".	c #7BCB69",
"+	c #8E5429",
"@	c #BB6D33",
"#	c #CB8C5D",
"$	c #D5A067",
"%	c #DBB574",
"&	c #BBEEE9",
"*	c #54DBF6",
"=	c #4280DD",
"  ..  ..  ..  ..  ..  ..  ..  ..",
"..  ..  ..  ..  ..  ..  ..  ..  ",
"..  ..  ..  ..  ..  ..  ..  ..  ",
"  ..  ..  ..  ..  ..  ..  ..  ..",
"  ..  ..  ..  ..  ..  ..  ..  ..",
"..  ..  ..  ..  ..  ..  ..  ..  ",
"..  ..  ..  ..  ..  ..  ..  ..  ",
"  ..  ..  ..  ..  ..  ..  ..    ",
"  ..  ..  ..  ..  ..  ..  ..    ",
"..  ..  ..  ..  ..  ..  ..      ",
"..  ..  ..  ..  ..  ..  ..      ",
"  ..  ..  ..  ..  ..  ..  ..  ..",
"  ..  ..  ..  ..  ..  ..  ..  ..",
"..  ..  ..  ..  ..  ..  ..  ..  ",
"..  ..  ..  ..  ..  ..  ..  ..  ",
"  ..  ..++@@@@@@@@@@@@++  ..  ..",
"  ..  ..++@@@@@@@@@@@@++  ..  ..",
"..  ..++@@##############++  ..  ",
"..  ..++@@##############++  ..  ",
"@@@@@@++@@##############++@@@@@@",
"@@@@@@++@@##############++@@@@@@",
"######++@@##$$$$$$$$$$$$++######",
"######++@@##$$$$$$$$$$$$++######",
"%%%%%%++@@##$$$$$$$$$$$$@@%%%%%%",
"%%%%%%++@@##$$$$$$$$$$$$@@%%%%%%",
"%%%%%%&&&&&&&&&&&&&&&&&&&&%%%%%%",
"%%%%%%&&&&&&&&&&&&&&&&&&&&%%%%%%",
"&&&&&&&&****************&&&&&&&&",
"&&&&&&&&****************&&&&&&&&",
"**********============**********",
"**********============**********",
"================================"};
