/* XPM */
static char * walld_xpm[] = {
"32 32 9 1",
" 	c #76C564",
".	c #7BCB69",
"+	c #C57B54",
"@	c #D5A067",
"#	c #BBEEE9",
"$	c #54DBF6",
"%	c #50A7E8",
"&	c #BB6D33",
"*	c #DBB574",
" ..  ..  ..  ++@@##$$%%%%%%%%%%%",
".  ..  ..  ..  ++@@##$$%%%%%%%%%",
".  ..  ..  ..  ++@@##$$%%%%%%%%%",
" ..  ..  ..  ..++@@##$$%%%%%%%%%",
" ..  ..  ..  ..++@@##$$%%%%%%%%%",
".  ..  ..  ..  ++@@##$$%%%%%%%%%",
".  ..  ..  ..  ++@@##$$%%%%%%%%%",
" ..  ..  ..  ..++@@##$$%%%%%%%%%",
" ..  ..  ..  ..++@@##$$%%%%%%%%%",
".  ..  ..  ..  &&@@##$$$$%%%%%%%",
".  ..  ..  ..  &&@@##$$$$%%%%%%%",
" ..  ..  ..  ..&&@@####$$%%%%%%%",
" ..  ..  ..  ..&&@@####$$%%%%%%%",
".  ..  ..  ..  ..&&**##$$%%%%%%%",
".  ..  ..  ..  ..&&**##$$%%%%%%%",
" ..  ..  ..  ..  &&**##$$%%%%%%%",
" ..  ..  ..  ..  &&**##$$%%%%%%%",
".  ..  ..  ..  ..&&**##$$%%%%%%%",
".  ..  ..  ..  ..&&**##$$%%%%%%%",
" ..  ..  ..  ..  &&**##$$%%%%%%%",
" ..  ..  ..  ..  &&**##$$%%%%%%%",
".  ..  ..  ..  ..&&**##$$%%%%%%%",
".  ..  ..  ..  ..&&**##$$%%%%%%%",
" ..  ..  ..  ..&&@@####$$%%%%%%%",
" ..  ..  ..  ..&&@@####$$%%%%%%%",
".  ..  ..  ..  &&@@##$$$$%%%%%%%",
".  ..  ..  ..  &&@@##$$$$%%%%%%%",
" ..  ..  ..  ..++@@##$$%%%%%%%%%",
" ..  ..  ..  ..++@@##$$%%%%%%%%%",
".  ..  ..  ..  ++@@##$$%%%%%%%%%",
".  ..  ..  ..  ++@@##$$%%%%%%%%%",
" ..  ..  ..  ..++@@##$$%%%%%%%%%"};
