/* XPM */
static char * P3_xpm[] = {
"32 32 14 1",
" 	c #222222",
".	c #483B3A",
"+	c #775C55",
"@	c #B29547",
"#	c #E5D972",
"$	c #AF7F60",
"%	c #141728",
"&	c #000000",
"*	c #E4C094",
"=	c #44001B",
"-	c #37435C",
";	c #790C25",
">	c #DCD0B8",
",	c #AA222B",
"   .    ... .      .    ... .   ",
" ..............+ ..............+",
"..........@@####...............+",
"........@@@@@###...............+",
" ........@@@#@#$ ...+..........+",
".......%&&@@@#&$..++  +........+",
" .....%&&@@@#*** .  ..  +.......",
" .....%&%%=$$***  ...... ......+",
" .....%%%===$$$=-........ ++....",
"......%%=====$$;=....... +  ++++",
"......%%====;=$=;=.....+ ...   +",
" .....%%=;===&==;=....+ ........",
" .....%%=;;%&=;;==.... .........",
" .....%%%=;&&%===....+ ........+",
" .....&&&**&>>>>>>>>>>>>>>>>>>>+",
"+++..+%&=**&>>>>>>>>>>>>>>>>>>++",
"   .   %===&&=     .    ... .   ",
" ......=====&=.+ ... +.........+",
"....=====%%==&-+...+. .........+",
"......==%%%%=%-++.. ...........+",
" .....==%%%-%%-+ ..............+",
".++.===%==;;%;;+...............+",
"   ++=%%%;,;=;,. ...............",
"   ===%%%;;%%;;+ ..............+",
"  ===;;-- .%%-.. ...............",
"  =..   ...%%-.. ...............",
"  ....  +..==;.+ ..............+",
"  +..+ . ..=;;.. ...............",
"   ++  ....=;... ...............",
"      .....=;..+ ..+ ..........+",
"      .....==;.+ .+ ...........+",
"+++  +.++++.+++++++  +.++++.++++"};
