/* XPM */
static char * P4_xpm[] = {
"32 32 15 1",
" 	c #222222",
".	c #483B3A",
"+	c #775C55",
"@	c #E5D972",
"#	c #B29547",
"$	c #AF7F60",
"%	c #63788E",
"&	c #000000",
"*	c #E4C094",
"=	c #141728",
"-	c #44001B",
";	c #37435C",
">	c #790C25",
",	c #DCD0B8",
"'	c #AA222B",
"   .    ... .      .    ... .   ",
" ..............+ ..............+",
"............@@@@@..............+",
"..........###@@@@@.............+",
" ........###@#@$$@%.+..........+",
"...........##@&$&#&%  +........+",
" .........##@****&&%..  +.......",
" .........=-$****%&%.... ......+",
" ........----$*$-;%%..... ++....",
"........-----$$$--;%.... +  ++++",
"........------$-->-%...+ ...   +",
" ......-->>&->-->>-;..+ ........",
" ......->>&=-->>>--%.. .........",
" ......--&&==-----&;.+ ........+",
" ...&&&**&,,,,,,,,,,,,,,,,,,,..+",
"+++..+.**&,,,,,,,,,,,,,,,,,,++++",
"   .    .&&-----   .    ... .   ",
" ........-&--=;; ... +.........+",
"......-----&-=;;...+. .........+",
"........-----==;+.. ...........+",
" .......----===>>..............+",
".++...-----==-->'..............+",
"   ++.....+--==>>...............",
"     ++..+--->=; ..............+",
"       + -->>;.. ...............",
"  ...   .-==;... ...............",
"  ....  +.->;..+ ..............+",
"  +..+ . -->.... ...............",
"   ++  .-->..... ...............",
"      ..->.....+ ..+ ..........+",
"      ..-->....+ .+ ...........+",
"+++  +.++++.+++++++  +.++++.++++"};
